#Comment line ignore any data following # character 
#Hierarchical Translation and Rotation (.htr) file 
[Header]	
#Header keywords are followed by a single value 
FileType HTR		#Single word string
DataType HTRS		#Translation followed by rotation and scale data
FileVersion 1		#integer
NumSegments 64		#integer
NumFrames 3		#integer
DataFrameRate 30		#integer, data frame rate in this file
EulerRotationOrder ZYX
CalibrationUnits mm
RotationUnits Degrees
GlobalAxisofGravity Y
BoneLengthAxis Y
ScaleFactor 1.00
[SegmentNames&Hierarchy]
#CHILD	PARENT
Pinger_Root GLOBAL
Pelvis Pinger_Root
L_Hip Pelvis
R_Hip Pelvis
Rear_Leg01 Pelvis
Spine1 Pelvis
L_Leg01 L_Hip
L_Leg02 L_Leg01
L_Leg03 L_Leg02
L_Foot L_Leg03
L_Toe1_01 L_Foot
L_Toe2_01 L_Foot
L_Toe3_01 L_Foot
planeAlignerLeft L_Foot
L_Toe1_02 L_Toe1_01
L_Toe1_03 L_Toe1_02
L_Toe2_02 L_Toe2_01
L_Toe2_03 L_Toe2_02
L_Toe3_02 L_Toe3_01
L_Toe3_03 L_Toe3_02
planeLockWeightLeft planeAlignerLeft
R_Leg01 R_Hip
R_Leg02 R_Leg01
R_Leg03 R_Leg02
R_Foot R_Leg03
planeAlignerRight R_Foot
R_Toe1_01 R_Foot
R_Toe2_01 R_Foot
R_Toe3_01 R_Foot
planeLockWeightRight planeAlignerRight
R_Toe1_02 R_Toe1_01
R_Toe1_03 R_Toe1_02
R_Toe2_02 R_Toe2_01
R_Toe2_03 R_Toe2_02
R_Toe3_02 R_Toe3_01
R_Toe3_03 R_Toe3_02
Rear_Leg02 Rear_Leg01
Rear_Leg03 Rear_Leg02
Rear_Leg04 Rear_Leg03
Rear_Foot Rear_Leg04
planeAlignerCenter Rear_Foot
Rear_Toe1_01 Rear_Foot
Rear_Toe2_01 Rear_Foot
Rear_Toe3_01 Rear_Foot
planeLockWeightCenter planeAlignerCenter
Rear_Toe1_02 Rear_Toe1_01
Rear_Toe1_03 Rear_Toe1_02
Rear_Toe2_02 Rear_Toe2_01
Rear_Toe2_03 Rear_Toe2_02
Rear_Toe3_02 Rear_Toe3_01
Rear_Toe3_03 Rear_Toe3_02
Back_Bone Spine1
Head Spine1
Motor_Bone Back_Bone
Ping_Mechanism Back_Bone
BN_LookIK Head
bottomMouth Head
L_Mouth01 Head
L_mouthFront Head
mouthGun Head
R_Mouth01 Head
R_mouthFront Head
TopMouth Head
weapon_bone Head
[BasePosition]
#SegmentName Tx, Ty, Tz, Rx, Ry, Rz, BoneLength
Pinger_Root 0.000000 0.000000 0.000000 -90.000000 0.000000 0.000000 10.000000 
Pelvis 0.000000 0.000000 0.000000 0.000000 0.000000 0.000000 10.000000 
L_Hip 0.000000 0.000000 0.000000 0.000000 0.000000 0.000000 10.000000 
R_Hip 0.000000 0.000000 0.000000 0.000000 0.000000 0.000000 10.000000 
Rear_Leg01 0.000000 0.000000 0.000000 0.000000 0.000000 0.000000 10.000000 
Spine1 0.000000 0.000000 0.000000 0.000000 0.000000 0.000000 10.000000 
L_Leg01 0.000000 0.000000 0.000000 0.000000 0.000000 0.000000 10.000000 
L_Leg02 0.000000 0.000000 0.000000 0.000000 0.000000 0.000000 10.000000 
L_Leg03 0.000000 0.000000 0.000000 0.000000 0.000000 0.000000 10.000000 
L_Foot 0.000000 0.000000 0.000000 0.000000 0.000000 0.000000 10.000000 
L_Toe1_01 0.000000 0.000000 0.000000 0.000000 0.000000 0.000000 10.000000 
L_Toe2_01 0.000000 0.000000 0.000000 0.000000 0.000000 0.000000 10.000000 
L_Toe3_01 0.000000 0.000000 0.000000 0.000000 0.000000 0.000000 10.000000 
planeAlignerLeft 0.000000 0.000000 0.000000 0.000000 0.000000 0.000000 10.000000 
L_Toe1_02 0.000000 0.000000 0.000000 0.000000 0.000000 0.000000 10.000000 
L_Toe1_03 0.000000 0.000000 0.000000 0.000000 0.000000 0.000000 10.000000 
L_Toe2_02 0.000000 0.000000 0.000000 0.000000 0.000000 0.000000 10.000000 
L_Toe2_03 0.000000 0.000000 0.000000 0.000000 0.000000 0.000000 10.000000 
L_Toe3_02 0.000000 0.000000 0.000000 0.000000 0.000000 0.000000 10.000000 
L_Toe3_03 0.000000 0.000000 0.000000 0.000000 0.000000 0.000000 10.000000 
planeLockWeightLeft 0.000000 0.000000 0.000000 0.000000 0.000000 0.000000 10.000000 
R_Leg01 0.000000 0.000000 0.000000 0.000000 0.000000 0.000000 10.000000 
R_Leg02 0.000000 0.000000 0.000000 0.000000 0.000000 0.000000 10.000000 
R_Leg03 0.000000 0.000000 0.000000 0.000000 0.000000 0.000000 10.000000 
R_Foot 0.000000 0.000000 0.000000 0.000000 0.000000 0.000000 10.000000 
planeAlignerRight 0.000000 0.000000 0.000000 0.000000 0.000000 0.000000 10.000000 
R_Toe1_01 0.000000 0.000000 0.000000 0.000000 0.000000 0.000000 10.000000 
R_Toe2_01 0.000000 0.000000 0.000000 0.000000 0.000000 0.000000 10.000000 
R_Toe3_01 0.000000 0.000000 0.000000 0.000000 0.000000 0.000000 10.000000 
planeLockWeightRight 0.000000 0.000000 0.000000 0.000000 0.000000 0.000000 10.000000 
R_Toe1_02 0.000000 0.000000 0.000000 0.000000 0.000000 0.000000 10.000000 
R_Toe1_03 0.000000 0.000000 0.000000 0.000000 0.000000 0.000000 10.000000 
R_Toe2_02 0.000000 0.000000 0.000000 0.000000 0.000000 0.000000 10.000000 
R_Toe2_03 0.000000 0.000000 0.000000 0.000000 0.000000 0.000000 10.000000 
R_Toe3_02 0.000000 0.000000 0.000000 0.000000 0.000000 0.000000 10.000000 
R_Toe3_03 0.000000 0.000000 0.000000 0.000000 0.000000 0.000000 10.000000 
Rear_Leg02 0.000000 0.000000 0.000000 0.000000 0.000000 0.000000 10.000000 
Rear_Leg03 0.000000 0.000000 0.000000 0.000000 0.000000 0.000000 10.000000 
Rear_Leg04 0.000000 0.000000 0.000000 0.000000 0.000000 0.000000 10.000000 
Rear_Foot 0.000000 0.000000 0.000000 0.000000 0.000000 0.000000 10.000000 
planeAlignerCenter 0.000000 0.000000 0.000000 0.000000 0.000000 0.000000 10.000000 
Rear_Toe1_01 0.000000 0.000000 0.000000 0.000000 0.000000 0.000000 10.000000 
Rear_Toe2_01 0.000000 0.000000 0.000000 0.000000 0.000000 0.000000 10.000000 
Rear_Toe3_01 0.000000 0.000000 0.000000 0.000000 0.000000 0.000000 10.000000 
planeLockWeightCenter 0.000000 0.000000 0.000000 0.000000 0.000000 0.000000 10.000000 
Rear_Toe1_02 0.000000 0.000000 0.000000 0.000000 0.000000 0.000000 10.000000 
Rear_Toe1_03 0.000000 0.000000 0.000000 0.000000 0.000000 0.000000 10.000000 
Rear_Toe2_02 0.000000 0.000000 0.000000 0.000000 0.000000 0.000000 10.000000 
Rear_Toe2_03 0.000000 0.000000 0.000000 0.000000 0.000000 0.000000 10.000000 
Rear_Toe3_02 0.000000 0.000000 0.000000 0.000000 0.000000 0.000000 10.000000 
Rear_Toe3_03 0.000000 0.000000 0.000000 0.000000 0.000000 0.000000 10.000000 
Back_Bone 0.000000 0.000000 0.000000 0.000000 0.000000 0.000000 10.000000 
Head 0.000000 0.000000 0.000000 0.000000 0.000000 0.000000 10.000000 
Motor_Bone 0.000000 0.000000 0.000000 0.000000 0.000000 0.000000 10.000000 
Ping_Mechanism 0.000000 0.000000 0.000000 0.000000 0.000000 0.000000 10.000000 
BN_LookIK 0.000000 0.000000 0.000000 0.000000 0.000000 0.000000 10.000000 
bottomMouth 0.000000 0.000000 0.000000 0.000000 0.000000 0.000000 10.000000 
L_Mouth01 0.000000 0.000000 0.000000 0.000000 0.000000 0.000000 10.000000 
L_mouthFront 0.000000 0.000000 0.000000 0.000000 0.000000 0.000000 10.000000 
mouthGun 0.000000 0.000000 0.000000 0.000000 0.000000 0.000000 10.000000 
R_Mouth01 0.000000 0.000000 0.000000 0.000000 0.000000 0.000000 10.000000 
R_mouthFront 0.000000 0.000000 0.000000 0.000000 0.000000 0.000000 10.000000 
TopMouth 0.000000 0.000000 0.000000 0.000000 0.000000 0.000000 10.000000 
weapon_bone 0.000000 0.000000 0.000000 0.000000 0.000000 0.000000 10.000000 
#Beginning of Data. Separated by tabs
#Fr	Tx	Ty	Tz	Rx	Ry	Rz	SF
[Pinger_Root]
42 0.000000 0.000000 0.000000 -0.000075 -0.000000 -0.000020 0.000000
43 0.000000 0.000000 0.000000 -0.000075 -0.000000 -0.000020 0.000000
44 0.000000 0.000000 0.000000 -0.000075 -0.000000 -0.000020 0.000000
[Pelvis]
42 -974.403503 408.764923 3564.314941 -132.569977 -61.764378 146.386902 3717.645752
43 -1061.489990 432.284698 3641.260986 -130.950287 -60.550583 145.326126 3817.383057
44 -1120.997314 459.653351 3709.872314 -129.817444 -59.666821 144.540863 3902.700195
[L_Hip]
42 5.766392 125.831482 872.656799 -152.293610 -41.845699 57.260994 881.701050
43 5.766392 125.831482 872.656799 -152.293610 -41.845699 57.260994 881.701050
44 5.766392 125.831482 872.656799 -152.293610 -41.845699 57.260994 881.701050
[R_Hip]
42 5.765438 125.836372 -872.654907 38.087841 49.812687 125.703735 881.699829
43 5.765438 125.836372 -872.654907 38.087841 49.812687 125.703735 881.699829
44 5.765438 125.836372 -872.654907 38.087841 49.812687 125.703735 881.699829
[Rear_Leg01]
42 -192.298416 -925.602966 -0.001907 -169.160110 -27.509642 -131.890213 945.367432
43 -192.298416 -925.602966 -0.001907 -170.251740 -25.127396 -134.334106 945.367432
44 -192.298416 -925.602966 -0.001907 -171.529480 -22.971224 -136.273560 945.367432
[Spine1]
42 290.604584 5.007505 0.000477 -1.634877 27.019978 27.390329 290.647736
43 290.604584 5.007505 0.000477 -0.232205 27.232601 28.104033 290.647736
44 290.604584 5.007505 0.000477 1.002053 27.212742 28.497053 290.647736
[L_Leg01]
42 761.932007 -0.002384 -0.069261 41.549236 -21.351063 -45.591221 761.932068
43 761.932007 -0.002384 -0.069261 40.803406 -23.654688 -45.226238 761.932068
44 761.932007 -0.002384 -0.069261 40.273567 -25.391912 -44.802544 761.932068
[L_Leg02]
42 1441.140503 -0.000954 -0.000715 5.777021 1.504948 -97.263573 1441.140503
43 1441.140503 -0.000954 -0.000715 5.691015 1.458541 -98.777382 1441.140503
44 1441.140503 -0.000954 -0.000715 5.606264 1.409876 -100.291061 1441.140503
[L_Leg03]
42 1686.963989 -0.000715 -0.000954 -0.100784 0.060194 138.005463 1686.963989
43 1686.963989 -0.000715 -0.000954 -0.100848 0.060087 137.883606 1686.963989
44 1686.963989 -0.000715 -0.000954 -0.101008 0.059819 137.579300 1686.963989
[L_Foot]
42 3041.570068 -30.715107 11.297464 -15.466093 16.973696 19.655657 3041.746094
43 3041.570068 -30.715107 11.297464 -13.511858 17.076141 21.430904 3041.746094
44 3041.570068 -30.715107 11.297464 -12.201657 17.140553 23.282448 3041.746094
[L_Toe1_01]
42 -188.216690 -224.732346 -21.137953 78.148552 -17.025139 179.470551 293.899567
43 -188.216690 -224.732346 -21.137953 78.128174 -16.636251 179.454773 293.899567
44 -188.216690 -224.732346 -21.137953 78.144600 -16.361170 179.161133 293.899567
[L_Toe2_01]
42 200.746536 -219.926590 148.838394 -73.159546 -22.286413 -62.144989 332.896027
43 200.746536 -219.926590 148.838394 -73.369850 -21.729580 -62.127819 332.896027
44 200.746536 -219.926590 148.838394 -73.583893 -21.354349 -61.878654 332.896027
[L_Toe3_01]
42 188.832520 -219.859131 -191.078659 -111.133957 34.628731 -54.990238 347.140900
43 188.832520 -219.859131 -191.078659 -111.577049 34.723431 -55.701584 347.140900
44 188.832520 -219.859131 -191.078659 -111.771065 34.832420 -55.940170 347.140900
[planeAlignerLeft]
42 4.595327 -576.656860 163.841675 -10.789001 -84.825699 -89.935555 599.498413
43 7.937265 -580.598938 154.432816 -10.786300 -84.821083 -89.937798 600.839111
44 11.442206 -580.187500 146.908691 -10.783645 -84.816811 -89.940422 598.607239
[L_Toe1_02]
42 413.761139 0.000477 0.000000 0.001421 -21.318319 0.001421 413.761139
43 413.761139 0.000477 0.000000 0.001422 -21.227732 0.001422 413.761139
44 413.761139 0.000477 0.000000 0.001423 -21.094416 0.001423 413.761139
[L_Toe1_03]
42 464.317322 0.000358 -0.000089 0.028149 85.220818 0.028149 464.317322
43 464.317322 0.000358 -0.000089 0.033390 85.971291 0.033390 464.317322
44 464.317322 0.000358 -0.000089 0.041030 86.721649 0.041030 464.317322
[L_Toe2_02]
42 342.235809 -0.000477 0.000238 0.001191 -70.150391 0.001191 342.235809
43 342.235809 -0.000477 0.000238 0.001191 -70.177612 0.001191 342.235809
44 342.235809 -0.000477 0.000238 0.001191 -70.204788 0.001191 342.235809
[L_Toe2_03]
42 420.210846 -0.000715 0.000000 0.013328 79.896347 0.013328 420.210846
43 420.210846 -0.000715 0.000000 0.013185 79.786720 0.013185 420.210846
44 420.210846 -0.000715 0.000000 0.013509 80.031906 0.013509 420.210846
[L_Toe3_02]
42 329.270111 0.000954 0.000000 0.004676 -84.250351 0.004676 329.270111
43 329.270111 0.000954 0.000000 0.004677 -84.098305 0.004677 329.270111
44 329.270111 0.000954 0.000000 0.004677 -83.946083 0.004677 329.270111
[L_Toe3_03]
42 439.137451 -0.001907 0.000954 179.992249 56.800652 179.999542 439.137451
43 439.137451 -0.001907 0.000954 179.992081 58.205307 179.999344 439.137451
44 439.137451 -0.001907 0.000954 179.991974 59.101612 179.999222 439.137451
[planeLockWeightLeft]
42 1000.000000 -0.000116 -0.000243 -0.011826 -0.004376 0.005620 1000.000000
43 1000.000000 -0.000131 -0.000237 -0.011826 -0.004376 0.005620 1000.000000
44 1000.000000 -0.000145 -0.000232 -0.011826 -0.004376 0.005620 1000.000000
[R_Leg01]
42 761.455627 -0.001907 -0.000358 166.954391 -3.367689 23.186045 761.455688
43 761.455627 -0.001907 -0.000358 168.232574 -2.154521 27.656069 761.455688
44 761.455627 -0.001907 -0.000358 169.318924 -1.960465 28.675804 761.455688
[R_Leg02]
42 1441.140625 0.000000 -0.000238 0.199733 0.060716 -83.296173 1441.140625
43 1441.140625 0.000000 -0.000238 0.228142 0.085573 -73.324249 1441.140625
44 1441.140625 0.000000 -0.000238 0.229274 0.088917 -69.529190 1441.140625
[R_Leg03]
42 1686.963989 0.000954 0.001431 0.002310 -0.000416 110.400642 1686.963989
43 1686.963989 0.000954 0.001431 -0.014488 0.005606 106.295288 1686.963989
44 1686.963989 0.000954 0.001431 -0.028547 0.006740 102.875664 1686.963989
[R_Foot]
42 3041.560059 -30.531288 -11.204481 10.788081 9.569062 35.283112 3041.734131
43 3041.560059 -30.531288 -11.204481 13.087966 9.642691 34.580040 3041.734131
44 3041.560059 -30.531288 -11.204481 14.723396 9.692271 35.634941 3041.734131
[planeAlignerRight]
42 -21.538931 -526.374268 -328.970062 -30.233234 -68.213928 -70.299332 621.091858
43 -23.153664 -506.898926 -315.756897 -33.059803 -69.747963 -67.658699 597.649597
44 -22.497568 -488.232269 -305.803650 -35.516258 -70.888458 -65.347519 576.535095
[R_Toe1_01]
42 -188.383347 -224.864899 21.052242 47.786236 13.177480 -178.560318 294.101532
43 -188.383347 -224.864899 21.052242 49.082394 12.259638 -179.987473 294.101532
44 -188.383347 -224.864899 21.052242 50.132763 11.522151 178.627884 294.101532
[R_Toe2_01]
42 200.637817 -220.002121 -148.787384 -93.703262 47.181549 -52.231819 332.857574
43 200.637817 -220.002121 -148.787384 -93.971367 46.995934 -50.771255 332.857574
44 200.637817 -220.002121 -148.787384 -93.922218 46.947380 -49.149506 332.857574
[R_Toe3_01]
42 188.606735 -220.092957 191.126343 -58.288410 -7.467237 -73.780945 347.192566
43 188.606735 -220.092957 191.126343 -59.089401 -10.291735 -71.314796 347.192566
44 188.606735 -220.092957 191.126343 -59.818954 -12.584022 -68.977699 347.192566
[planeLockWeightRight]
42 999.999512 0.000305 -0.000459 -0.011823 -0.004379 -0.000027 999.999512
43 999.999512 0.000305 -0.000466 -0.011823 -0.004379 -0.000027 999.999512
44 999.999512 0.000305 -0.000473 -0.011823 -0.004379 -0.000027 999.999512
[R_Toe1_02]
42 413.762085 0.000477 -0.000119 0.001394 -24.679731 0.001394 413.762085
43 413.762085 0.000477 -0.000119 0.001395 -24.514431 0.001395 413.762085
44 413.762085 0.000477 -0.000119 0.001397 -24.349129 0.001397 413.762085
[R_Toe1_03]
42 464.317810 0.000000 0.001088 0.006589 69.478958 0.006589 464.317810
43 464.317810 0.000000 0.001088 0.006922 70.475075 0.006922 464.317810
44 464.317810 0.000000 0.001088 0.007291 71.471268 0.007291 464.317810
[R_Toe2_02]
42 342.234741 -0.000954 0.000238 -0.002331 -80.555214 -0.002331 342.234741
43 342.234741 -0.000954 0.000238 -0.002331 -80.726746 -0.002331 342.234741
44 342.234741 -0.000954 0.000238 -0.002331 -80.765709 -0.002331 342.234741
[R_Toe2_03]
42 420.210846 0.000715 -0.000268 -179.996216 55.998230 -179.999878 420.210846
43 420.210846 0.000715 -0.000268 -179.996307 53.913315 -179.999985 420.210846
44 420.210846 0.000715 -0.000268 -179.996368 52.194210 179.999924 420.210846
[R_Toe3_02]
42 329.270355 -0.000477 -0.000954 0.001180 -77.772987 0.001180 329.270355
43 329.270355 -0.000477 -0.000954 0.001179 -79.254822 0.001179 329.270355
44 329.270355 -0.000477 -0.000954 0.001178 -80.273178 0.001178 329.270355
[R_Toe3_03]
42 439.137939 0.000238 0.001431 -179.971222 87.842514 -179.967728 439.137939
43 439.137939 0.000238 0.001431 -179.992249 83.062256 -179.988754 439.137939
44 439.137939 0.000238 0.001431 -179.995575 79.323441 -179.992065 439.137939
[Rear_Leg02]
42 1162.777710 -0.029802 0.005960 7.066583 -9.694952 -105.846558 1162.777710
43 1162.777710 -0.029802 0.005960 6.069601 -7.843832 -107.366524 1162.777710
44 1162.777710 -0.029802 0.005960 5.191678 -6.597257 -107.764320 1162.777710
[Rear_Leg03]
42 607.192505 -0.013351 -0.073195 0.010280 -0.005521 72.833611 607.192505
43 607.192505 -0.013351 -0.073195 0.010253 -0.005570 73.383705 607.192505
44 607.192505 -0.013351 -0.073195 0.010246 -0.005584 73.531799 607.192505
[Rear_Leg04]
42 995.874512 -0.020504 -0.011921 -0.041715 -0.015127 77.498001 995.874573
43 995.874512 -0.020504 -0.011921 -0.045024 -0.018472 78.804008 995.874573
44 995.874512 -0.020504 -0.011921 -0.045087 -0.018318 79.195007 995.874573
[Rear_Foot]
42 3096.176270 -0.067472 -0.041425 -39.957127 71.863564 133.414490 3096.176270
43 3096.176270 -0.067472 -0.041425 -32.355927 71.449554 133.870651 3096.176270
44 3096.176270 -0.067472 -0.041425 -27.298536 71.435028 133.538681 3096.176270
[planeAlignerCenter]
42 14.177275 72.653488 -786.678467 12.240772 -0.001473 179.998184 790.153503
43 12.674660 71.123375 -796.786926 12.240772 -0.001473 179.998184 800.055359
44 11.269400 66.362076 -804.079895 12.240772 -0.001473 179.998184 806.892395
[Rear_Toe1_01]
42 0.653352 83.966492 -371.173737 2.284945 50.632130 92.722145 380.553192
43 0.653352 83.966492 -371.173737 5.585157 60.613174 95.960869 380.553192
44 0.653352 83.966492 -371.173737 11.272723 70.429306 101.424431 380.553192
[Rear_Toe2_01]
42 178.200760 -294.826019 -362.060547 -8.613548 33.341431 -72.528725 499.765686
43 178.200760 -294.826019 -362.060547 -9.624081 32.799534 -77.175514 499.765686
44 178.200760 -294.826019 -362.060547 -10.283382 32.165539 -80.677673 499.765686
[Rear_Toe3_01]
42 -153.359680 -308.780914 -362.060852 3.791713 33.973404 -110.066536 499.952881
43 -153.359680 -308.780914 -362.060852 4.219588 34.033062 -108.217552 499.952881
44 -153.359680 -308.780914 -362.060852 4.588748 33.837654 -106.682709 499.952881
[planeLockWeightCenter]
42 0.000220 0.000305 0.000034 -0.011814 -0.004373 -0.000015 0.000378
43 0.000212 0.000305 0.000030 -0.011814 -0.004373 -0.000015 0.000373
44 0.000203 0.000305 0.000025 -0.011814 -0.004373 -0.000015 0.000368
[Rear_Toe1_02]
42 379.707825 0.194073 0.000477 -0.002642 -33.113644 -0.002642 379.707855
43 379.707825 0.194073 0.000477 -0.002651 -32.412579 -0.002651 379.707855
44 379.707825 0.194073 0.000477 -0.002650 -32.461502 -0.002650 379.707855
[Rear_Toe1_03]
42 500.129700 0.165701 0.000119 -0.014927 86.049881 -0.018426 500.129761
43 500.129700 0.165701 0.000119 -179.978241 86.708244 -179.981750 500.129761
44 500.129700 0.165701 0.000119 -179.978851 86.606102 -179.982346 500.129761
[Rear_Toe2_02]
42 340.494507 0.000238 -0.000954 0.001180 -77.989204 0.001180 340.494507
43 340.494507 0.000238 -0.000954 0.001181 -77.139091 0.001181 340.494507
44 340.494507 0.000238 -0.000954 0.001183 -75.956406 0.001183 340.494507
[Rear_Toe2_03]
42 433.103577 0.000000 0.000238 0.021195 83.651558 0.021195 433.103546
43 433.103577 0.000000 0.000238 0.016928 82.048775 0.016928 433.103546
44 433.103577 0.000000 0.000238 0.013119 79.735191 0.013119 433.103546
[Rear_Toe3_02]
42 340.494141 -0.000358 -0.000477 0.001178 -80.092735 0.001178 340.494171
43 340.494141 -0.000358 -0.000477 0.001177 -81.071175 0.001177 340.494171
44 340.494141 -0.000358 -0.000477 0.001177 -81.553612 0.001177 340.494171
[Rear_Toe3_03]
42 433.103577 0.001431 -0.000238 -0.032974 87.890488 -0.029476 433.103546
43 433.103577 0.001431 -0.000238 0.000000 89.793465 0.003495 433.103546
44 433.103577 0.001431 -0.000238 -179.919815 89.195702 -179.916321 433.103546
[Back_Bone]
42 1312.175781 -701.934692 0.000954 2.790756 -1.457651 -85.682373 1488.125488
43 1312.175781 -701.934692 0.000954 2.790756 -1.457651 -85.682373 1488.125488
44 1312.175781 -701.934692 0.000954 2.790756 -1.457651 -85.682373 1488.125488
[Head]
42 1406.159424 809.709290 0.001431 -1.623609 2.697531 7.613082 1622.625488
43 1406.159424 809.709290 0.001431 -1.623609 2.697531 7.613079 1622.625488
44 1406.159424 809.709290 0.001431 -1.623609 2.697531 7.613079 1622.625488
[Motor_Bone]
42 1158.364380 -417.834747 0.000477 3.394448 -1.301977 -115.970810 1231.419434
43 1158.364380 -417.834747 0.000477 3.394448 -1.301977 -115.970810 1231.419434
44 1158.364380 -417.834747 0.000477 3.394448 -1.301977 -115.970810 1231.419434
[Ping_Mechanism]
42 1281.568359 -469.621765 -120.981728 0.000103 -0.000053 82.120995 1370.255005
43 1287.629639 -475.314514 -122.837341 0.000103 -0.000053 82.120995 1378.043091
44 1292.620117 -479.843384 -123.496010 0.000103 -0.000053 82.120995 1384.329224
[BN_LookIK]
42 193.241119 1380.371704 -0.002861 0.000000 89.965736 -31.038179 1393.832153
43 193.241119 1380.371704 -0.002861 0.000000 89.965736 -31.038179 1393.832153
44 193.241119 1380.371704 -0.002861 0.000000 89.965736 -31.038179 1393.832153
[bottomMouth]
42 -435.092926 615.759399 -0.000954 -0.000022 0.000016 73.527184 753.966492
43 -435.092926 615.759399 -0.000954 -0.000022 0.000016 73.527184 753.966492
44 -435.092926 615.759399 -0.000954 -0.000022 0.000016 73.527184 753.966492
[L_Mouth01]
42 554.440979 7.658243 838.222046 150.204178 23.759130 109.605339 1005.027161
43 554.440979 7.658243 838.222046 150.204178 23.759130 109.605339 1005.027161
44 554.440979 7.658243 838.222046 150.204178 23.759130 109.605339 1005.027161
[L_mouthFront]
42 551.629089 934.514771 339.150421 0.000081 2.804060 79.119301 1136.941284
43 551.629089 934.514771 339.150421 0.000081 2.804060 79.119301 1136.941284
44 551.629089 934.514771 339.150421 0.000081 2.804060 79.119301 1136.941284
[mouthGun]
42 55.332661 1627.420898 0.000000 0.000023 0.000009 -11.038128 1628.361328
43 55.332661 1627.420898 0.000000 0.000023 0.000009 -11.038128 1628.361328
44 55.332661 1627.420898 0.000000 0.000023 0.000009 -11.038128 1628.361328
[R_Mouth01]
42 554.442383 7.659197 -838.223938 29.795891 -23.759109 109.605331 1005.029541
43 554.442383 7.659197 -838.223938 29.795891 -23.759109 109.605331 1005.029541
44 554.442383 7.659197 -838.223938 29.795891 -23.759109 109.605331 1005.029541
[R_mouthFront]
42 551.629089 934.514282 -339.151367 0.000029 -2.803930 79.119133 1136.941162
43 551.629089 934.514282 -339.151367 0.000029 -2.803930 79.119133 1136.941162
44 551.629089 934.514282 -339.151367 0.000029 -2.803930 79.119133 1136.941162
[TopMouth]
42 461.269867 -56.106091 -0.008583 -0.000059 -0.000268 92.025169 464.669525
43 461.269867 -56.106091 -0.008583 -0.000059 -0.000268 92.025169 464.669525
44 461.269867 -56.106091 -0.008583 -0.000059 -0.000268 92.025169 464.669525
[weapon_bone]
42 -987.239868 1448.372803 0.001431 0.000000 89.965736 -31.038221 1752.833740
43 -987.239868 1448.372803 0.001431 0.000000 89.965736 -31.038221 1752.833740
44 -987.239868 1448.372803 0.001431 0.000000 89.965736 -31.038221 1752.833740
